OpenSim_Sub05_CSBaseline_GRF.mot
version=1
nRows=23
nColumns=19
inDegrees=no
endheader
time	lFx	lFy	lFz	lCOPx	lCOPy	lCOPz	rFx	rFy	rFz	rCOPx	rCOPy	rCOPz	lMx	lMy	lMz	rMx	rMy	rMz
0	-1.52139755	25.10395449	-14.45361581	-0.00000000	0	0.00000000	7.27483283	4.64119020	7.73829916	0.00000000	0	-0.00000000	0	-0.00000000	0	0	-0.00000000	-0.00000000
0.01000000	-1.78829690	14.07122435	-7.70259517	-0.00000000	0	0.00000000	3.50109151	2.18198294	3.75669571	-0.00000000	0	0.00000000	0	-0.00000000	0	0	-0.00000000	-0.00000000
0.02000000	-2.06083034	6.10939355	-3.26330662	-0.00000000	0	0.00000000	0.99768425	0.24001052	0.87152059	-0.00000000	0	0.00000000	0	-0.00000000	0	0	-0.00000000	-0.00000000
0.03000000	-2.21011033	2.55772929	-1.46534836	-0.00000000	0	0.00000000	-0.03515249	-0.83950538	-0.43675697	-0.00000000	0	0.00000000	0	-0.00000000	0	0	-0.00000000	-0.00000000
0.04000000	-2.27031623	1.77952982	-1.15070946	0.00000000	0	-0.00000000	-0.21668035	-1.31677699	-0.70397107	-0.00000000	0	0.00000000	0	-0.00000000	0	0	0.00000000	0.00000000
0.05000000	-2.28300536	2.08398878	-1.36963895	0.00000000	0	-0.00000000	-0.11037395	-1.42966149	-0.53410299	0.00000000	0	-0.00000000	0	0.00000000	0	0	0.00000000	0.00000000
0.06000000	-2.27053833	2.50371119	-1.61033212	0.00000000	0	-0.00000000	0.01258677	-1.32247077	-0.28567594	0.00000000	0	-0.00000000	0	0.00000000	0	0	0.00000000	0.00000000
0.07000000	-2.23815378	2.72160898	-1.73175539	0.00000000	0	-0.00000000	0.10635441	-1.14930049	-0.12541575	0.00000000	0	-0.00000000	0	0.00000000	0	0	0.00000000	0.00000000
0.08000000	-2.18692920	2.79702588	-1.74861887	0.00000000	0	-0.00000000	0.14461642	-1.01783423	-0.08994300	0.00000000	0	-0.00000000	0	0.00000000	0	0	0.00000000	0.00000000
0.09000000	-2.13052590	2.80393636	-1.67566672	-0.00000000	0	0.00000000	0.15558171	-0.99832833	-0.11188445	0.00000000	0	-0.00000000	0	-0.00000000	0	0	-0.00000000	-0.00000000
0.10000000	-2.08373920	2.68883958	-1.60591772	-0.00000000	0	0.00000000	0.15667039	-1.05821495	-0.14782957	-0.00000000	0	0.00000000	0	-0.00000000	0	0	-0.00000000	-0.00000000
0.11000000	-2.04117528	2.52948529	-1.57497714	-0.00000000	0	0.00000000	0.19882771	-1.10261354	-0.21768202	-0.00000000	0	0.00000000	0	-0.00000000	0	0	-0.00000000	-0.00000000
0.12000000	-2.01399209	2.40276244	-1.54024807	-0.00000000	0	0.00000000	0.24761812	-1.11264411	-0.19552963	-0.00000000	0	0.00000000	0	-0.00000000	0	0	-0.00000000	-0.00000000
0.13000000	-2.01843632	2.33238095	-1.50269254	0.00000000	0	-0.00000000	0.25683774	-1.11465117	-0.17232915	-0.00000000	0	0.00000000	0	-0.00000000	0	0	-0.00000000	-0.00000000
0.14000000	-2.02985150	2.31990081	-1.48435694	0.00000000	0	-0.00000000	0.23176193	-1.09916161	-0.25001171	-0.00000000	0	0.00000000	0	0.00000000	0	0	0.00000000	0.00000000
0.15000000	-2.02795617	2.30487476	-1.46732276	0.00000000	0	-0.00000000	0.20719163	-1.07531048	-0.29311291	0.00000000	0	-0.00000000	0	0.00000000	0	0	0.00000000	0.00000000
0.16000000	-2.02656969	2.22541655	-1.42050388	0.00000000	0	-0.00000000	0.20831051	-1.03254717	-0.30806261	0.00000000	0	-0.00000000	0	0.00000000	0	0	0.00000000	0.00000000
0.17000000	-2.02853321	2.17232700	-1.36052707	0.00000000	0	-0.00000000	0.21316959	-1.00720472	-0.30702746	0.00000000	0	-0.00000000	0	0.00000000	0	0	0.00000000	0.00000000
0.18000000	-2.03069762	2.17783384	-1.30471145	-0.00000000	0	0.00000000	0.21846142	-1.03716433	-0.28028397	0.00000000	0	-0.00000000	0	0.00000000	0	0	-0.00000000	-0.00000000
0.19000000	-2.03723816	2.22098956	-1.25700945	-0.00000000	0	0.00000000	0.19980730	-1.08912303	-0.27867039	-0.00000000	0	-0.00000000	0	-0.00000000	0	0	-0.00000000	-0.00000000
0.20000000	-2.07403499	2.22604345	-1.18922518	-0.00000000	0	0.00000000	0.15031375	-1.12707104	-0.24991670	-0.00000000	0	0.00000000	0	-0.00000000	0	0	-0.00000000	-0.00000000
0.21000000	-2.13386423	2.17498605	-1.09837030	-0.00000000	0	0.00000000	0.11615250	-1.21875179	-0.22102217	-0.00000000	0	0.00000000	0	-0.00000000	0	0	-0.00000000	-0.00000000
0.22000000	-2.17579136	2.04485932	-1.04067186	-0.00000000	0	0.00000000	0.11849198	-1.35065007	-0.22177148	-0.00000000	0	0.00000000	0	-0.00000000	0	0	-0.00000000	-0.00000000
